<svg xmlns="http://www.w3.org/2000/svg" viewBox="0 0 32 32" width="32" height="32">
  <defs>
    <linearGradient id="sunGradient" x1="0%" y1="0%" x2="100%" y2="100%">
      <stop offset="0%" style="stop-color:#FFD700;stop-opacity:1" />
      <stop offset="100%" style="stop-color:#FFA500;stop-opacity:1" />
    </linearGradient>
    <linearGradient id="cloudGradient" x1="0%" y1="0%" x2="100%" y2="100%">
      <stop offset="0%" style="stop-color:#87CEEB;stop-opacity:1" />
      <stop offset="100%" style="stop-color:#4682B4;stop-opacity:1" />
    </linearGradient>
  </defs>
  
  <!-- Background circle -->
  <circle cx="16" cy="16" r="15" fill="url(#sunGradient)" stroke="#FF8C00" stroke-width="1"/>
  
  <!-- Sun rays -->
  <g fill="#FFD700" opacity="0.8">
    <rect x="15" y="4" width="2" height="3" rx="1"/>
    <rect x="15" y="25" width="2" height="3" rx="1"/>
    <rect x="4" y="15" width="3" height="2" rx="1"/>
    <rect x="25" y="15" width="3" height="2" rx="1"/>
    <rect x="7" y="7" width="2" height="2" rx="1" transform="rotate(45 8 8)"/>
    <rect x="23" y="23" width="2" height="2" rx="1" transform="rotate(45 24 24)"/>
    <rect x="7" y="23" width="2" height="2" rx="1" transform="rotate(-45 8 24)"/>
    <rect x="23" y="7" width="2" height="2" rx="1" transform="rotate(-45 24 8)"/>
  </g>
  
  <!-- Cloud -->
  <g fill="url(#cloudGradient)" opacity="0.9">
    <ellipse cx="12" cy="18" rx="4" ry="3"/>
    <ellipse cx="18" cy="18" rx="4" ry="3"/>
    <ellipse cx="15" cy="16" rx="6" ry="4"/>
  </g>
  
  <!-- Weather icon (thermometer) -->
  <g fill="#FF4500" opacity="0.8">
    <rect x="14" y="20" width="4" height="8" rx="2"/>
    <circle cx="16" cy="30" r="2"/>
    <rect x="15.5" y="22" width="1" height="6" fill="#FF0000"/>
  </g>
</svg> 